<?xml version="1.0" encoding="UTF-8" standalone="no"?>
<!DOCTYPE svg PUBLIC "-//W3C//DTD SVG 1.1//EN" "http://www.w3.org/Graphics/SVG/1.1/DTD/svg11.dtd">
<svg width="100%" height="100%" viewBox="0 0 1034 1843" version="1.1" xmlns="http://www.w3.org/2000/svg" xmlns:xlink="http://www.w3.org/1999/xlink" xml:space="preserve" xmlns:serif="http://www.serif.com/" style="fill-rule:evenodd;clip-rule:evenodd;stroke-linecap:round;stroke-linejoin:round;stroke-miterlimit:1.5;">
    <g transform="matrix(1,0,0,1,-1848.95,-236.728)">
        <g transform="matrix(-0.631537,-7.80626e-17,1.23165e-16,-1,3333.81,2129.67)">
            <path d="M1181.1,1842.52C1181.1,1842.52 1180.72,1889.37 1228.35,1889.76C1275.98,1890.16 1842.52,1889.76 1842.52,1889.76C1842.52,1889.76 1889.46,1909.37 1889.76,1842.52C1890.02,1786.55 1892.2,1079.17 1890.34,850.394C1890.18,830.962 1889.99,814.983 1889.77,803.15C1889.23,773.821 1913.39,779.528 1913.39,779.528L2350.39,779.528L2350.39,769.086L1547.24,59.055C1538.86,47.799 1530.48,48.657 1522.1,59.055L720.472,767.717C714.394,771.654 713.558,775.591 720.472,779.528L1157.48,779.528C1174.29,779.953 1181.61,788.288 1181.1,803.15L1181.1,1842.52Z" style="fill:rgb(129,97,62);stroke:black;stroke-width:1.2px;"/>
        </g>
    </g>
</svg>
